<svg xmlns="http://www.w3.org/2000/svg" width="109" height="28" viewBox="0 0 109 28">
    <path fill="#FF0068" fill-rule="evenodd" d="M7.267 6.25v4.118c.564 0 1.103.005 1.642 0 1.173-.013 2.348.003 3.518-.054 1.276-.062 1.941-.646 2.08-1.718.17-1.297-.501-2.207-1.926-2.3-1.75-.115-3.514-.057-5.271-.073-.01 0-.019.012-.043.027zm0 15.527c.238 0 .457.002.674 0 1.75-.021 3.503.009 5.249-.08 1.421-.072 2.179-.82 2.348-2.094.187-1.415-.406-2.404-1.72-2.807a3.965 3.965 0 0 0-1.09-.178c-1.775-.024-3.549-.02-5.323-.025-.043 0-.087.014-.138.024v5.16zM31.189 0c.28-.002.451.086.61.327 2.602 3.943 5.214 7.88 7.824 11.818.807 1.217 1.613 2.436 2.42 3.652.047.07.107.13.214.26 0-.25.007-.416-.001-.583-.23-4.958-.195-9.92-.189-14.882 0-.453.135-.585.593-.586 1.847-.001 3.695-.002 5.542 0 .442 0 .584.147.584.604.001 3.38.002 6.761-.003 10.142 0 .13-.026.284-.098.384-1.454 2.009-1.952 4.294-1.945 6.735.005 1.855.286 3.65 1.103 5.328.23.47.536.902.793 1.358.075.132.142.29.144.438.013.86 0 1.72.01 2.579.005.316-.133.427-.429.426-2.142-.004-4.284.004-6.426-.015-.166 0-.39-.138-.485-.282-1.935-2.893-3.856-5.795-5.779-8.697l-4.065-6.136c-.047-.07-.107-.132-.223-.273v.414l.077 14.438v.192c-.007.357-.073.357-.547.357h-5.509c-.468 0-.49-.02-.49-.476V.638c0-.56.075-.632.631-.632 1.881 0 3.763.005 5.644-.006zM79.1 0l6.78.005c.553 0 .718.291.436.75-2.549 4.138-5.096 8.278-7.657 12.41-.177.286-.168.478.01.758 2.78 4.389 5.547 8.784 8.317 13.179.055.087.115.173.16.265.141.293.004.556-.324.614-.102.019-.21.012-.315.012-2.342 0-4.684-.007-7.026.007-.386.002-.625-.119-.824-.443-1.764-2.871-3.541-5.734-5.315-8.6-.053-.086-.111-.17-.21-.322l-1.409 2.673c-.303.577-.61 1.153-.903 1.735-.124.244-.298.347-.58.346-3.221-.008-6.442-.002-9.662-.012-1.208-.004-2.38-.204-3.443-.799-1.352-.755-1.958-1.952-2.115-3.463h.444c3.267 0 6.534-.002 9.802.004.233 0 .37-.054.496-.268a501.366 501.366 0 0 1 3.046-5.068c.111-.183.101-.31-.009-.49-2.555-4.176-5.102-8.355-7.65-12.534-.276-.453-.104-.754.441-.754C63.954 0 66.32.005 68.686 0c.292 0 .47.113.614.36 1.51 2.62 3.03 5.234 4.546 7.85l.145.236c.156-.288.285-.532.42-.773 1.357-2.441 2.718-4.88 4.069-7.324.141-.256.332-.35.62-.349zm29.295 0c.498 0 .605.115.605.633v4.75c0 .519-.101.623-.61.623h-6.644V27.24c0 .672-.09.76-.766.76h-5.823c-.59 0-.687-.098-.687-.695V6.006H87.85c-.547 0-.65-.105-.65-.658V.632c0-.507.12-.631.614-.631h20.58zM12.26.004c1.776.003 3.516.207 5.195.848 2.55.974 4.138 3.154 4.288 5.875.117 2.114-.46 3.953-2.067 5.372-.546.483-1.227.813-1.848 1.21-.066.042-.145.065-.215.101-.015.009-.02.038-.031.06.498.215 1.006.405 1.488.647 1.785.9 3.096 2.238 3.545 4.225.795 3.512-.498 7.236-4.476 8.797-1.663.654-3.394.853-5.157.857-4.104.01-8.208.003-12.312.003-.555 0-.67-.111-.67-.653V.651c0-.547.106-.65.667-.65 3.864 0 7.729-.004 11.593.002zm47.5 11.607c1.05.386 1.543 1.133 1.483 2.201-.038.666-.04.705-.705.707H55.02c-.037-1.464.967-2.991 3.095-3.1.564-.03 1.121 0 1.645.192z"/>
</svg>
